<svg width="55" height="55" viewBox="0 0 55 55" fill="none" xmlns="http://www.w3.org/2000/svg">
<rect x="1" y="1" width="53" height="53" fill="#FFDCFF" stroke="black" stroke-width="2"/>
<path d="M37.5 11.5826C35.2529 11.8877 30.8081 11.879 31.0064 9.40291C31.2047 6.92682 31.3204 5.43593 31.3534 5" stroke="black"/>
<path d="M18 10.898C20.2002 11.1659 25.1886 11.0384 24.9945 8.86486C24.8004 6.69136 24.6871 5.38266 24.6547 5" stroke="black"/>
<path d="M26.5 8V13.2696V17.9213" stroke="black"/>
<path d="M29 22.573L36.5 21.0225" stroke="black"/>
<path d="M29 25.6741L35.5 24" stroke="black"/>
<path d="M29 28.7753L35.5 27.2247" stroke="black"/>
<path d="M19.7402 5.16181C18.4025 5.45487 18.0681 11.145 18.0681 13.9535C17.9361 14.7777 18.9921 28.1025 19.2561 30.1173C19.4673 31.7291 17.1734 44.2511 16 50.3106C16.264 51.3638 25.5484 50.6769 26.1644 50.7685C26.7804 50.8601 26.1204 19.7688 26.4284 17.0214C26.6748 14.8235 29 15 29.0685 16.2429V50.6769C29.0685 51.2722 37.5169 50.9059 38.7929 50.6769C39.8138 50.4937 36.8128 36.3752 35.1848 29.3388C35.1114 29.0794 35.308 26.8662 36.6808 20.0893C38.0537 13.3124 36.9448 5.19583 35.6248 5.16181C30.8873 5.0397 21.0778 4.86876 19.7402 5.16181Z" stroke="black" stroke-width="2"/>
<path d="M18.5 8.10107H37" stroke="black"/>
</svg>
