<svg width="55" height="55" viewBox="0 0 55 55" fill="none" xmlns="http://www.w3.org/2000/svg">
<rect x="1" y="1" width="53" height="53" fill="#FFDCFF" stroke="black" stroke-width="2"/>
<path d="M48.1119 33.1485C49.2349 32.9741 49.1917 18.8658 48.5438 19.52C44.0088 18.8658 45.0885 19.52 44.8726 21.5915C44.6998 23.2487 40.4815 23.2996 38.394 23.1179C37.9261 23.1543 36.5368 22.4856 34.7228 19.52C32.4553 15.813 25.5448 19.9561 24.6809 20.7193C23.8171 21.4825 16.0428 25.7346 10.9679 26.2798C6.90798 26.7159 5.96499 29.2962 6.00098 30.5319C6.00098 32.2763 6.72082 33.0032 7.08075 33.1485M48.1119 33.1485C46.7082 33.3666 10.752 35.7652 7.08075 33.1485M48.1119 33.1485C48.8029 34.0208 48.6878 35.9833 48.5438 36.8555H47.2481C40.2296 36.9645 24.3786 37.1172 17.1226 36.8555C9.86655 36.5938 7.40468 34.2752 7.08075 33.1485" stroke="black" stroke-width="2"/>
<path d="M10.5745 26.1428C12.1659 27.4681 15.7707 29.976 17.4584 29.4051C19.568 28.6914 31.0041 32.5654 31.6703 32.6673C32.2033 32.7489 33.1299 33.7961 33.5 34" stroke="black" stroke-width="2"/>
<path d="M24.2979 30.6666C26.7487 29.6986 32.5585 26.5338 36.1915 21.619" stroke="black" stroke-width="2"/>
<path d="M49 24.3334C46.2352 24.7331 40.3517 27.1022 38.9362 33.381" stroke="black" stroke-width="2"/>
<path d="M17.8936 24.3334L19.7234 27.0477" stroke="black" stroke-width="2"/>
<path d="M20.6383 23.4286L22.4681 26.1429" stroke="black" stroke-width="2"/>
<path d="M24.2979 21.619L26.1276 24.3333" stroke="black" stroke-width="2"/>
<path d="M27.0425 19.8096L29.7872 23.4286" stroke="black" stroke-width="2"/>
</svg>
