<svg width="55" height="55" viewBox="0 0 55 55" fill="none" xmlns="http://www.w3.org/2000/svg">
<rect x="1" y="1" width="53" height="53" fill="#FFDCFF" stroke="black" stroke-width="2"/>
<path d="M21.28 13.6556C21.472 16.5052 20.04 19.7646 19.3 21.0381C19.06 21.0381 19.57 25.0309 20.02 26.2374C20.38 27.2026 20.59 28.9759 20.65 29.7419C21.37 31.4655 19.85 37.7947 19 40.7438C25.192 43.0189 33.58 41.6918 37 40.7438C34.6 34.338 34.81 29.6558 35.29 28.0184C35.674 26.7085 36.27 22.8382 36.52 21.0668C35.7838 19.6557 35.21 18.5198 34.84 17.3899C34.54 17.0452 34.45 14.144 34.27 13.4545C34.09 12.7651 33.43 13.0811 32.38 13.0237C31.54 12.9777 31.41 13.7514 31.45 14.144C31.57 15.7526 31.32 16.5186 31.18 16.7005C30.52 18.0219 28.12 17.8208 26.59 17.7346C25.366 17.6657 24.66 16.8825 24.46 16.4994C24.34 15.7181 24.09 14.029 23.98 13.2822C22.132 12.7307 21.41 13.3013 21.28 13.6556Z" stroke="black" stroke-width="2"/>
<path d="M24.5291 16.6078C24.3692 17.5152 24.7739 20.0415 26.5 20.5C28.6576 21.0731 30.7622 20.1897 31.0918 18.0406C31.3556 16.3212 31.3116 16.4741 31.2117 16.7511" stroke="black" stroke-width="2"/>
</svg>
