<svg width="55" height="55" viewBox="0 0 55 55" fill="none" xmlns="http://www.w3.org/2000/svg">
<rect x="1" y="1" width="53" height="53" fill="#FFDCFF" stroke="black" stroke-width="2"/>
<path d="M10.0014 24.0724C9.32325 25.8194 12.3843 26.3233 14.5 26.5L17.6459 20.8926L16.4413 44.7851C20.9632 48.3182 33.5526 46.846 39.2821 45.6683L38.3555 21.4667L41.1353 27C43 27 45.583 25.0293 46 24.0724L41.1353 13.3848L33.3519 11C28.9412 13.3318 23.6688 11.9716 21.584 11L14.2638 13.3848C12.8121 16.1671 11 21.5 10.0014 24.0724Z" stroke="black" stroke-width="2"/>
<path d="M21.4146 11.4337C21.726 14.0434 24.2266 18.5599 31.7376 15.7486C32.6407 15.2148 34.3814 13.6045 34.1198 11.4337" stroke="black" stroke-width="2"/>
</svg>
